{
	"patcher" : 	{
		"fileversion" : 1,
		"appversion" : 		{
			"major" : 8,
			"minor" : 1,
			"revision" : 0,
			"architecture" : "x64",
			"modernui" : 1
		}
,
		"classnamespace" : "box",
		"rect" : [ 36.0, 79.0, 753.0, 531.0 ],
		"bglocked" : 0,
		"openinpresentation" : 0,
		"default_fontsize" : 12.0,
		"default_fontface" : 0,
		"default_fontname" : "Arial",
		"gridonopen" : 1,
		"gridsize" : [ 15.0, 15.0 ],
		"gridsnaponopen" : 1,
		"objectsnaponopen" : 1,
		"statusbarvisible" : 2,
		"toolbarvisible" : 1,
		"lefttoolbarpinned" : 0,
		"toptoolbarpinned" : 0,
		"righttoolbarpinned" : 0,
		"bottomtoolbarpinned" : 0,
		"toolbars_unpinned_last_save" : 0,
		"tallnewobj" : 0,
		"boxanimatetime" : 200,
		"enablehscroll" : 1,
		"enablevscroll" : 1,
		"devicewidth" : 0.0,
		"description" : "",
		"digest" : "",
		"tags" : "",
		"style" : "",
		"subpatcher_template" : "Default Max 7",
		"boxes" : [ 			{
				"box" : 				{
					"id" : "obj-117",
					"maxclass" : "newobj",
					"numinlets" : 2,
					"numoutlets" : 1,
					"outlettype" : [ "signal" ],
					"patching_rect" : [ 38.0, 742.0, 75.0, 22.0 ],
					"text" : "onepole~ 50"
				}

			}
, 			{
				"box" : 				{
					"id" : "obj-116",
					"maxclass" : "button",
					"numinlets" : 1,
					"numoutlets" : 1,
					"outlettype" : [ "bang" ],
					"parameter_enable" : 0,
					"patching_rect" : [ 196.0, 679.0, 24.0, 24.0 ]
				}

			}
, 			{
				"box" : 				{
					"format" : 6,
					"id" : "obj-114",
					"maxclass" : "flonum",
					"numinlets" : 1,
					"numoutlets" : 2,
					"outlettype" : [ "", "bang" ],
					"parameter_enable" : 0,
					"patching_rect" : [ 144.0, 490.0, 50.0, 22.0 ]
				}

			}
, 			{
				"box" : 				{
					"format" : 6,
					"id" : "obj-111",
					"maxclass" : "flonum",
					"numinlets" : 1,
					"numoutlets" : 2,
					"outlettype" : [ "", "bang" ],
					"parameter_enable" : 0,
					"patching_rect" : [ 196.0, 497.0, 50.0, 22.0 ]
				}

			}
, 			{
				"box" : 				{
					"id" : "obj-109",
					"maxclass" : "newobj",
					"numinlets" : 2,
					"numoutlets" : 1,
					"outlettype" : [ "float" ],
					"patching_rect" : [ 122.0, 610.0, 33.0, 22.0 ],
					"text" : "* 0.5"
				}

			}
, 			{
				"box" : 				{
					"id" : "obj-108",
					"maxclass" : "message",
					"numinlets" : 2,
					"numoutlets" : 1,
					"outlettype" : [ "" ],
					"patching_rect" : [ 11.0, 567.0, 94.0, 22.0 ],
					"text" : "setdomain 6000"
				}

			}
, 			{
				"box" : 				{
					"id" : "obj-106",
					"maxclass" : "newobj",
					"numinlets" : 2,
					"numoutlets" : 2,
					"outlettype" : [ "bang", "" ],
					"patching_rect" : [ 196.0, 623.0, 34.0, 22.0 ],
					"text" : "sel 1"
				}

			}
, 			{
				"box" : 				{
					"id" : "obj-105",
					"maxclass" : "newobj",
					"numinlets" : 2,
					"numoutlets" : 1,
					"outlettype" : [ "int" ],
					"patching_rect" : [ 196.0, 588.0, 36.0, 22.0 ],
					"text" : "> 0.9"
				}

			}
, 			{
				"box" : 				{
					"id" : "obj-104",
					"maxclass" : "newobj",
					"numinlets" : 1,
					"numoutlets" : 2,
					"outlettype" : [ "float", "float" ],
					"patching_rect" : [ 122.0, 520.0, 93.0, 22.0 ],
					"text" : "unpack f f"
				}

			}
, 			{
				"box" : 				{
					"addpoints" : [ 0.0, 1.0, 0, 1500.0, 0.105263157894737, 0, 6000.0, 0.0, 0 ],
					"domain" : 6000.0,
					"id" : "obj-102",
					"maxclass" : "function",
					"numinlets" : 1,
					"numoutlets" : 4,
					"outlettype" : [ "float", "", "", "bang" ],
					"parameter_enable" : 0,
					"patching_rect" : [ 11.0, 610.0, 100.0, 63.0 ]
				}

			}
, 			{
				"box" : 				{
					"id" : "obj-101",
					"maxclass" : "newobj",
					"numinlets" : 2,
					"numoutlets" : 1,
					"outlettype" : [ "signal" ],
					"patching_rect" : [ 122.0, 742.0, 29.5, 22.0 ],
					"text" : "*~"
				}

			}
, 			{
				"box" : 				{
					"id" : "obj-100",
					"maxclass" : "newobj",
					"numinlets" : 2,
					"numoutlets" : 0,
					"patching_rect" : [ 122.0, 784.0, 55.0, 22.0 ],
					"text" : "dac~ 1 2"
				}

			}
, 			{
				"box" : 				{
					"id" : "obj-99",
					"maxclass" : "newobj",
					"numinlets" : 2,
					"numoutlets" : 2,
					"outlettype" : [ "signal", "bang" ],
					"patching_rect" : [ 38.0, 700.0, 34.0, 22.0 ],
					"text" : "line~"
				}

			}
, 			{
				"box" : 				{
					"id" : "obj-98",
					"maxclass" : "newobj",
					"numinlets" : 2,
					"numoutlets" : 1,
					"outlettype" : [ "signal" ],
					"patching_rect" : [ 122.0, 651.0, 66.0, 22.0 ],
					"text" : "cycle~ 440"
				}

			}
, 			{
				"box" : 				{
					"id" : "obj-92",
					"maxclass" : "newobj",
					"numinlets" : 1,
					"numoutlets" : 2,
					"outlettype" : [ "list", "" ],
					"patching_rect" : [ 11.0, 532.0, 66.0, 22.0 ],
					"text" : "fluid.pitch~"
				}

			}
, 			{
				"box" : 				{
					"id" : "obj-91",
					"maxclass" : "newobj",
					"numinlets" : 2,
					"numoutlets" : 1,
					"outlettype" : [ "int" ],
					"patching_rect" : [ 217.0, 77.0, 48.0, 22.0 ],
					"text" : "i 36000"
				}

			}
, 			{
				"box" : 				{
					"id" : "obj-90",
					"maxclass" : "newobj",
					"numinlets" : 2,
					"numoutlets" : 0,
					"patching_rect" : [ 497.0, 371.0, 55.0, 22.0 ],
					"text" : "dac~ 1 2"
				}

			}
, 			{
				"box" : 				{
					"id" : "obj-89",
					"maxclass" : "toggle",
					"numinlets" : 1,
					"numoutlets" : 1,
					"outlettype" : [ "int" ],
					"parameter_enable" : 0,
					"patching_rect" : [ 497.0, 273.0, 24.0, 24.0 ]
				}

			}
, 			{
				"box" : 				{
					"id" : "obj-87",
					"maxclass" : "newobj",
					"numinlets" : 1,
					"numoutlets" : 2,
					"outlettype" : [ "signal", "bang" ],
					"patching_rect" : [ 490.0, 322.0, 64.0, 22.0 ],
					"text" : "play~ quot"
				}

			}
, 			{
				"box" : 				{
					"id" : "obj-86",
					"maxclass" : "newobj",
					"numinlets" : 1,
					"numoutlets" : 2,
					"outlettype" : [ "float", "bang" ],
					"patching_rect" : [ 553.0, 217.0, 73.0, 22.0 ],
					"text" : "buffer~ quot"
				}

			}
, 			{
				"box" : 				{
					"id" : "obj-83",
					"maxclass" : "newobj",
					"numinlets" : 1,
					"numoutlets" : 3,
					"outlettype" : [ "bang", "float", "" ],
					"patching_rect" : [ 468.5, 420.0, 202.0, 22.0 ],
					"text" : "fluid.bufnoveltyslice~ @source drum"
				}

			}
, 			{
				"box" : 				{
					"id" : "obj-82",
					"maxclass" : "newobj",
					"numinlets" : 2,
					"numoutlets" : 1,
					"outlettype" : [ "signal" ],
					"patching_rect" : [ 266.0, 294.0, 29.5, 22.0 ],
					"text" : "+~"
				}

			}
, 			{
				"box" : 				{
					"id" : "obj-78",
					"maxclass" : "scope~",
					"numinlets" : 2,
					"numoutlets" : 0,
					"patching_rect" : [ 549.0, 723.0, 130.0, 130.0 ]
				}

			}
, 			{
				"box" : 				{
					"attr" : "order",
					"id" : "obj-75",
					"maxclass" : "attrui",
					"numinlets" : 1,
					"numoutlets" : 1,
					"outlettype" : [ "" ],
					"patching_rect" : [ 392.0, 567.0, 150.0, 22.0 ]
				}

			}
, 			{
				"box" : 				{
					"format" : 6,
					"id" : "obj-74",
					"maxclass" : "flonum",
					"numinlets" : 1,
					"numoutlets" : 2,
					"outlettype" : [ "", "bang" ],
					"parameter_enable" : 0,
					"patching_rect" : [ 416.0, 637.0, 50.0, 22.0 ]
				}

			}
, 			{
				"box" : 				{
					"format" : 6,
					"id" : "obj-72",
					"maxclass" : "flonum",
					"numinlets" : 1,
					"numoutlets" : 2,
					"outlettype" : [ "", "bang" ],
					"parameter_enable" : 0,
					"patching_rect" : [ 364.0, 637.0, 50.0, 22.0 ]
				}

			}
, 			{
				"box" : 				{
					"id" : "obj-70",
					"maxclass" : "newobj",
					"numinlets" : 2,
					"numoutlets" : 1,
					"outlettype" : [ "signal" ],
					"patching_rect" : [ 266.0, 735.0, 29.5, 22.0 ],
					"text" : "+~"
				}

			}
, 			{
				"box" : 				{
					"id" : "obj-69",
					"maxclass" : "newobj",
					"numinlets" : 2,
					"numoutlets" : 1,
					"outlettype" : [ "signal" ],
					"patching_rect" : [ 303.0, 693.0, 29.5, 22.0 ],
					"text" : "*~"
				}

			}
, 			{
				"box" : 				{
					"id" : "obj-68",
					"maxclass" : "newobj",
					"numinlets" : 2,
					"numoutlets" : 1,
					"outlettype" : [ "signal" ],
					"patching_rect" : [ 266.0, 693.0, 29.5, 22.0 ],
					"text" : "*~"
				}

			}
, 			{
				"box" : 				{
					"id" : "obj-67",
					"maxclass" : "newobj",
					"numinlets" : 1,
					"numoutlets" : 3,
					"outlettype" : [ "signal", "signal", "" ],
					"patching_rect" : [ 266.0, 637.0, 93.0, 22.0 ],
					"text" : "fluid.transients~"
				}

			}
, 			{
				"box" : 				{
					"id" : "obj-55",
					"maxclass" : "newobj",
					"numinlets" : 3,
					"numoutlets" : 4,
					"outlettype" : [ "signal", "signal", "signal", "signal" ],
					"patching_rect" : [ 266.0, 584.0, 81.0, 22.0 ],
					"text" : "svf~ 5000 0.5"
				}

			}
, 			{
				"box" : 				{
					"id" : "obj-54",
					"maxclass" : "newobj",
					"numinlets" : 2,
					"numoutlets" : 3,
					"outlettype" : [ "signal", "signal", "" ],
					"patching_rect" : [ 56.0, 448.0, 130.0, 22.0 ],
					"text" : "hirt.convolutionreverb~",
					"varname" : "hirt.convolutionreverb~"
				}

			}
, 			{
				"box" : 				{
					"id" : "obj-52",
					"maxclass" : "number",
					"numinlets" : 1,
					"numoutlets" : 2,
					"outlettype" : [ "", "bang" ],
					"parameter_enable" : 0,
					"patching_rect" : [ 240.0, 21.0, 50.0, 22.0 ]
				}

			}
, 			{
				"box" : 				{
					"id" : "obj-50",
					"maxclass" : "newobj",
					"numinlets" : 2,
					"numoutlets" : 1,
					"outlettype" : [ "" ],
					"patching_rect" : [ 406.0, 91.0, 29.5, 22.0 ],
					"text" : "join"
				}

			}
, 			{
				"box" : 				{
					"id" : "obj-49",
					"maxclass" : "newobj",
					"numinlets" : 2,
					"numoutlets" : 1,
					"outlettype" : [ "int" ],
					"patching_rect" : [ 455.0, 56.0, 46.0, 22.0 ],
					"text" : "+ 6000"
				}

			}
, 			{
				"box" : 				{
					"id" : "obj-48",
					"maxclass" : "newobj",
					"numinlets" : 1,
					"numoutlets" : 2,
					"outlettype" : [ "int", "int" ],
					"patching_rect" : [ 336.0, 35.0, 29.5, 22.0 ],
					"text" : "t i i"
				}

			}
, 			{
				"box" : 				{
					"id" : "obj-40",
					"lastchannelcount" : 0,
					"maxclass" : "live.gain~",
					"numinlets" : 2,
					"numoutlets" : 5,
					"outlettype" : [ "signal", "signal", "", "float", "list" ],
					"parameter_enable" : 1,
					"patching_rect" : [ 266.0, 406.0, 48.0, 136.0 ],
					"saved_attribute_attributes" : 					{
						"valueof" : 						{
							"parameter_shortname" : "live.gain~",
							"parameter_type" : 0,
							"parameter_unitstyle" : 4,
							"parameter_mmin" : -70.0,
							"parameter_longname" : "live.gain~",
							"parameter_mmax" : 6.0
						}

					}
,
					"varname" : "live.gain~"
				}

			}
, 			{
				"box" : 				{
					"id" : "obj-39",
					"maxclass" : "newobj",
					"numinlets" : 2,
					"numoutlets" : 1,
					"outlettype" : [ "signal" ],
					"patching_rect" : [ 105.0, 273.0, 60.0, 22.0 ],
					"text" : "*~ 0.0001"
				}

			}
, 			{
				"box" : 				{
					"id" : "obj-38",
					"maxclass" : "newobj",
					"numinlets" : 1,
					"numoutlets" : 1,
					"outlettype" : [ "signal" ],
					"patching_rect" : [ 105.0, 224.0, 50.0, 22.0 ],
					"text" : "rand~ 6"
				}

			}
, 			{
				"box" : 				{
					"id" : "obj-37",
					"maxclass" : "newobj",
					"numinlets" : 2,
					"numoutlets" : 1,
					"outlettype" : [ "signal" ],
					"patching_rect" : [ 56.0, 322.0, 29.5, 22.0 ],
					"text" : "+~"
				}

			}
, 			{
				"box" : 				{
					"id" : "obj-36",
					"maxclass" : "ezdac~",
					"numinlets" : 2,
					"numoutlets" : 0,
					"patching_rect" : [ 385.0, 735.0, 45.0, 45.0 ]
				}

			}
, 			{
				"box" : 				{
					"id" : "obj-33",
					"maxclass" : "newobj",
					"numinlets" : 3,
					"numoutlets" : 1,
					"outlettype" : [ "signal" ],
					"patching_rect" : [ 56.0, 406.0, 126.0, 22.0 ],
					"text" : "wave~ piano_cropped"
				}

			}
, 			{
				"box" : 				{
					"id" : "obj-32",
					"maxclass" : "message",
					"numinlets" : 2,
					"numoutlets" : 1,
					"outlettype" : [ "" ],
					"patching_rect" : [ 406.0, 126.0, 211.0, 22.0 ],
					"text" : "cropto piano_cropped piano $1 $2 0 0"
				}

			}
, 			{
				"box" : 				{
					"id" : "obj-30",
					"maxclass" : "button",
					"numinlets" : 1,
					"numoutlets" : 1,
					"outlettype" : [ "bang" ],
					"parameter_enable" : 0,
					"patching_rect" : [ 518.0, 483.0, 24.0, 24.0 ]
				}

			}
, 			{
				"box" : 				{
					"format" : 6,
					"id" : "obj-28",
					"maxclass" : "flonum",
					"numinlets" : 1,
					"numoutlets" : 2,
					"outlettype" : [ "", "bang" ],
					"parameter_enable" : 0,
					"patching_rect" : [ 581.0, 574.0, 98.0, 22.0 ]
				}

			}
, 			{
				"box" : 				{
					"id" : "obj-26",
					"maxclass" : "newobj",
					"numinlets" : 1,
					"numoutlets" : 9,
					"outlettype" : [ "float", "list", "float", "float", "float", "float", "float", "", "int" ],
					"patching_rect" : [ 518.0, 525.0, 103.0, 22.0 ],
					"text" : "info~ src"
				}

			}
, 			{
				"box" : 				{
					"id" : "obj-25",
					"maxclass" : "newobj",
					"numinlets" : 1,
					"numoutlets" : 1,
					"outlettype" : [ "bang" ],
					"patching_rect" : [ 406.0, 168.0, 70.0, 22.0 ],
					"text" : "irtrimnorm~"
				}

			}
, 			{
				"box" : 				{
					"id" : "obj-24",
					"maxclass" : "newobj",
					"numinlets" : 1,
					"numoutlets" : 2,
					"outlettype" : [ "float", "bang" ],
					"patching_rect" : [ 112.0, 112.0, 139.0, 22.0 ],
					"text" : "buffer~ piano_cropped 1"
				}

			}
, 			{
				"box" : 				{
					"id" : "obj-23",
					"maxclass" : "newobj",
					"numinlets" : 1,
					"numoutlets" : 2,
					"outlettype" : [ "float", "bang" ],
					"patching_rect" : [ 112.0, 77.0, 79.0, 22.0 ],
					"text" : "buffer~ piano"
				}

			}
, 			{
				"box" : 				{
					"id" : "obj-22",
					"maxclass" : "newobj",
					"numinlets" : 2,
					"numoutlets" : 0,
					"patching_rect" : [ 56.0, 490.0, 74.5, 22.0 ],
					"text" : "dac~"
				}

			}
, 			{
				"box" : 				{
					"id" : "obj-57",
					"maxclass" : "button",
					"numinlets" : 1,
					"numoutlets" : 1,
					"outlettype" : [ "bang" ],
					"parameter_enable" : 0,
					"patching_rect" : [ 364.0, 448.0, 33.0, 33.0 ]
				}

			}
, 			{
				"box" : 				{
					"fontname" : "Arial",
					"fontsize" : 13.0,
					"id" : "obj-58",
					"maxclass" : "newobj",
					"numinlets" : 1,
					"numoutlets" : 2,
					"outlettype" : [ "bang", "bang" ],
					"patching_rect" : [ 367.0, 434.0, 48.0, 23.0 ],
					"text" : "edge~"
				}

			}
, 			{
				"box" : 				{
					"fontname" : "Arial",
					"fontsize" : 13.0,
					"id" : "obj-59",
					"maxclass" : "newobj",
					"numinlets" : 2,
					"numoutlets" : 1,
					"outlettype" : [ "signal" ],
					"patching_rect" : [ 367.0, 406.0, 49.0, 23.0 ],
					"text" : "<=~ 0."
				}

			}
, 			{
				"box" : 				{
					"fontname" : "Arial",
					"fontsize" : 13.0,
					"id" : "obj-60",
					"maxclass" : "newobj",
					"numinlets" : 1,
					"numoutlets" : 1,
					"outlettype" : [ "signal" ],
					"patching_rect" : [ 367.0, 378.0, 47.0, 23.0 ],
					"text" : "delta~"
				}

			}
, 			{
				"box" : 				{
					"format" : 6,
					"id" : "obj-12",
					"maxclass" : "flonum",
					"numinlets" : 1,
					"numoutlets" : 2,
					"outlettype" : [ "", "bang" ],
					"parameter_enable" : 0,
					"patching_rect" : [ 301.0, 210.0, 50.0, 22.0 ]
				}

			}
, 			{
				"box" : 				{
					"id" : "obj-10",
					"maxclass" : "newobj",
					"numinlets" : 2,
					"numoutlets" : 1,
					"outlettype" : [ "signal" ],
					"patching_rect" : [ 266.0, 259.0, 29.5, 22.0 ],
					"text" : "*~"
				}

			}
, 			{
				"box" : 				{
					"id" : "obj-9",
					"maxclass" : "newobj",
					"numinlets" : 1,
					"numoutlets" : 1,
					"outlettype" : [ "signal" ],
					"patching_rect" : [ 266.0, 210.0, 31.0, 22.0 ],
					"text" : "sig~"
				}

			}
, 			{
				"box" : 				{
					"id" : "obj-7",
					"maxclass" : "toggle",
					"numinlets" : 1,
					"numoutlets" : 1,
					"outlettype" : [ "int" ],
					"parameter_enable" : 0,
					"patching_rect" : [ 266.0, 140.0, 24.0, 24.0 ]
				}

			}
, 			{
				"box" : 				{
					"id" : "obj-5",
					"maxclass" : "newobj",
					"numinlets" : 3,
					"numoutlets" : 2,
					"outlettype" : [ "signal", "signal" ],
					"patching_rect" : [ 266.0, 336.0, 131.0, 22.0 ],
					"saved_object_attributes" : 					{
						"basictuning" : 440,
						"followglobaltempo" : 0,
						"formantcorrection" : 0,
						"loopend" : [ 0.0, "ms" ],
						"loopstart" : [ 0.0, "ms" ],
						"mode" : "basic",
						"originallength" : [ 0.0, "ticks" ],
						"originaltempo" : 120.0,
						"phase" : [ 0.0, "ticks" ],
						"pitchcorrection" : 0,
						"quality" : "basic",
						"timestretch" : [ 0 ]
					}
,
					"text" : "groove~ drum @loop 1"
				}

			}
, 			{
				"box" : 				{
					"id" : "obj-4",
					"maxclass" : "newobj",
					"numinlets" : 2,
					"numoutlets" : 0,
					"patching_rect" : [ 266.0, 777.0, 35.0, 22.0 ],
					"text" : "dac~"
				}

			}
, 			{
				"box" : 				{
					"id" : "obj-3",
					"maxclass" : "newobj",
					"numinlets" : 1,
					"numoutlets" : 2,
					"outlettype" : [ "float", "bang" ],
					"patching_rect" : [ 392.0, 223.0, 77.0, 22.0 ],
					"text" : "buffer~ drum"
				}

			}
 ],
		"lines" : [ 			{
				"patchline" : 				{
					"destination" : [ "obj-82", 0 ],
					"source" : [ "obj-10", 0 ]
				}

			}
, 			{
				"patchline" : 				{
					"destination" : [ "obj-100", 1 ],
					"order" : 0,
					"source" : [ "obj-101", 0 ]
				}

			}
, 			{
				"patchline" : 				{
					"destination" : [ "obj-100", 0 ],
					"order" : 1,
					"source" : [ "obj-101", 0 ]
				}

			}
, 			{
				"patchline" : 				{
					"destination" : [ "obj-99", 0 ],
					"source" : [ "obj-102", 1 ]
				}

			}
, 			{
				"patchline" : 				{
					"destination" : [ "obj-105", 0 ],
					"order" : 0,
					"source" : [ "obj-104", 1 ]
				}

			}
, 			{
				"patchline" : 				{
					"destination" : [ "obj-109", 0 ],
					"source" : [ "obj-104", 0 ]
				}

			}
, 			{
				"patchline" : 				{
					"destination" : [ "obj-111", 0 ],
					"order" : 1,
					"source" : [ "obj-104", 1 ]
				}

			}
, 			{
				"patchline" : 				{
					"destination" : [ "obj-106", 0 ],
					"source" : [ "obj-105", 0 ]
				}

			}
, 			{
				"patchline" : 				{
					"destination" : [ "obj-102", 0 ],
					"order" : 1,
					"source" : [ "obj-106", 0 ]
				}

			}
, 			{
				"patchline" : 				{
					"destination" : [ "obj-116", 0 ],
					"order" : 0,
					"source" : [ "obj-106", 0 ]
				}

			}
, 			{
				"patchline" : 				{
					"destination" : [ "obj-102", 0 ],
					"source" : [ "obj-108", 0 ]
				}

			}
, 			{
				"patchline" : 				{
					"destination" : [ "obj-114", 0 ],
					"order" : 0,
					"source" : [ "obj-109", 0 ]
				}

			}
, 			{
				"patchline" : 				{
					"destination" : [ "obj-98", 0 ],
					"order" : 1,
					"source" : [ "obj-109", 0 ]
				}

			}
, 			{
				"patchline" : 				{
					"destination" : [ "obj-101", 1 ],
					"source" : [ "obj-117", 0 ]
				}

			}
, 			{
				"patchline" : 				{
					"destination" : [ "obj-10", 1 ],
					"source" : [ "obj-12", 0 ]
				}

			}
, 			{
				"patchline" : 				{
					"destination" : [ "obj-28", 0 ],
					"source" : [ "obj-26", 6 ]
				}

			}
, 			{
				"patchline" : 				{
					"destination" : [ "obj-26", 0 ],
					"source" : [ "obj-30", 0 ]
				}

			}
, 			{
				"patchline" : 				{
					"destination" : [ "obj-25", 0 ],
					"source" : [ "obj-32", 0 ]
				}

			}
, 			{
				"patchline" : 				{
					"destination" : [ "obj-54", 1 ],
					"order" : 0,
					"source" : [ "obj-33", 0 ]
				}

			}
, 			{
				"patchline" : 				{
					"destination" : [ "obj-54", 0 ],
					"order" : 1,
					"source" : [ "obj-33", 0 ]
				}

			}
, 			{
				"patchline" : 				{
					"destination" : [ "obj-92", 0 ],
					"order" : 2,
					"source" : [ "obj-33", 0 ]
				}

			}
, 			{
				"patchline" : 				{
					"destination" : [ "obj-33", 0 ],
					"source" : [ "obj-37", 0 ]
				}

			}
, 			{
				"patchline" : 				{
					"destination" : [ "obj-39", 0 ],
					"source" : [ "obj-38", 0 ]
				}

			}
, 			{
				"patchline" : 				{
					"destination" : [ "obj-37", 1 ],
					"source" : [ "obj-39", 0 ]
				}

			}
, 			{
				"patchline" : 				{
					"destination" : [ "obj-55", 0 ],
					"source" : [ "obj-40", 0 ]
				}

			}
, 			{
				"patchline" : 				{
					"destination" : [ "obj-49", 0 ],
					"source" : [ "obj-48", 1 ]
				}

			}
, 			{
				"patchline" : 				{
					"destination" : [ "obj-50", 0 ],
					"source" : [ "obj-48", 0 ]
				}

			}
, 			{
				"patchline" : 				{
					"destination" : [ "obj-50", 1 ],
					"source" : [ "obj-49", 0 ]
				}

			}
, 			{
				"patchline" : 				{
					"destination" : [ "obj-37", 0 ],
					"midpoints" : [ 387.5, 368.0, 224.5, 368.0, 224.5, 199.0, 65.5, 199.0 ],
					"order" : 1,
					"source" : [ "obj-5", 1 ]
				}

			}
, 			{
				"patchline" : 				{
					"destination" : [ "obj-40", 0 ],
					"source" : [ "obj-5", 0 ]
				}

			}
, 			{
				"patchline" : 				{
					"destination" : [ "obj-60", 0 ],
					"order" : 0,
					"source" : [ "obj-5", 1 ]
				}

			}
, 			{
				"patchline" : 				{
					"destination" : [ "obj-32", 0 ],
					"source" : [ "obj-50", 0 ]
				}

			}
, 			{
				"patchline" : 				{
					"destination" : [ "obj-48", 0 ],
					"source" : [ "obj-52", 0 ]
				}

			}
, 			{
				"patchline" : 				{
					"destination" : [ "obj-22", 1 ],
					"source" : [ "obj-54", 1 ]
				}

			}
, 			{
				"patchline" : 				{
					"destination" : [ "obj-22", 0 ],
					"source" : [ "obj-54", 0 ]
				}

			}
, 			{
				"patchline" : 				{
					"destination" : [ "obj-67", 0 ],
					"source" : [ "obj-55", 0 ]
				}

			}
, 			{
				"patchline" : 				{
					"destination" : [ "obj-91", 0 ],
					"source" : [ "obj-57", 0 ]
				}

			}
, 			{
				"patchline" : 				{
					"destination" : [ "obj-57", 0 ],
					"source" : [ "obj-58", 0 ]
				}

			}
, 			{
				"patchline" : 				{
					"destination" : [ "obj-58", 0 ],
					"source" : [ "obj-59", 0 ]
				}

			}
, 			{
				"patchline" : 				{
					"destination" : [ "obj-59", 0 ],
					"source" : [ "obj-60", 0 ]
				}

			}
, 			{
				"patchline" : 				{
					"destination" : [ "obj-68", 0 ],
					"order" : 1,
					"source" : [ "obj-67", 0 ]
				}

			}
, 			{
				"patchline" : 				{
					"destination" : [ "obj-69", 0 ],
					"source" : [ "obj-67", 1 ]
				}

			}
, 			{
				"patchline" : 				{
					"destination" : [ "obj-78", 0 ],
					"order" : 0,
					"source" : [ "obj-67", 0 ]
				}

			}
, 			{
				"patchline" : 				{
					"destination" : [ "obj-70", 0 ],
					"source" : [ "obj-68", 0 ]
				}

			}
, 			{
				"patchline" : 				{
					"destination" : [ "obj-70", 1 ],
					"source" : [ "obj-69", 0 ]
				}

			}
, 			{
				"patchline" : 				{
					"destination" : [ "obj-9", 0 ],
					"source" : [ "obj-7", 0 ]
				}

			}
, 			{
				"patchline" : 				{
					"destination" : [ "obj-4", 1 ],
					"order" : 0,
					"source" : [ "obj-70", 0 ]
				}

			}
, 			{
				"patchline" : 				{
					"destination" : [ "obj-4", 0 ],
					"order" : 1,
					"source" : [ "obj-70", 0 ]
				}

			}
, 			{
				"patchline" : 				{
					"destination" : [ "obj-68", 1 ],
					"source" : [ "obj-72", 0 ]
				}

			}
, 			{
				"patchline" : 				{
					"destination" : [ "obj-69", 1 ],
					"source" : [ "obj-74", 0 ]
				}

			}
, 			{
				"patchline" : 				{
					"destination" : [ "obj-67", 0 ],
					"source" : [ "obj-75", 0 ]
				}

			}
, 			{
				"patchline" : 				{
					"destination" : [ "obj-5", 0 ],
					"source" : [ "obj-82", 0 ]
				}

			}
, 			{
				"patchline" : 				{
					"destination" : [ "obj-90", 1 ],
					"order" : 0,
					"source" : [ "obj-87", 0 ]
				}

			}
, 			{
				"patchline" : 				{
					"destination" : [ "obj-90", 0 ],
					"order" : 1,
					"source" : [ "obj-87", 0 ]
				}

			}
, 			{
				"patchline" : 				{
					"destination" : [ "obj-87", 0 ],
					"source" : [ "obj-89", 0 ]
				}

			}
, 			{
				"patchline" : 				{
					"destination" : [ "obj-10", 0 ],
					"source" : [ "obj-9", 0 ]
				}

			}
, 			{
				"patchline" : 				{
					"destination" : [ "obj-52", 0 ],
					"source" : [ "obj-91", 0 ]
				}

			}
, 			{
				"patchline" : 				{
					"destination" : [ "obj-104", 0 ],
					"source" : [ "obj-92", 0 ]
				}

			}
, 			{
				"patchline" : 				{
					"destination" : [ "obj-101", 0 ],
					"source" : [ "obj-98", 0 ]
				}

			}
, 			{
				"patchline" : 				{
					"destination" : [ "obj-117", 0 ],
					"source" : [ "obj-99", 0 ]
				}

			}
 ],
		"parameters" : 		{
			"obj-54::obj-1::obj-1::obj-44::obj-70" : [ "hirt.val[5]", "hirt.val", 0 ],
			"obj-54::obj-1::obj-2::obj-79::obj-70" : [ "hirt.val[14]", "hirt.val", 0 ],
			"obj-54::obj-31::obj-53::obj-70" : [ "hirt.val[23]", "hirt.val", 0 ],
			"obj-40" : [ "live.gain~", "live.gain~", 0 ],
			"obj-54::obj-1::obj-1::obj-53" : [ "Direct Mode", "Direct Mode", 0 ],
			"obj-54::obj-1::obj-2::obj-81::obj-70" : [ "hirt.val[11]", "hirt.val", 0 ],
			"obj-54::obj-3::obj-65::obj-70" : [ "hirt.val[32]", "hirt.val", 0 ],
			"obj-54::obj-31::obj-17::obj-70" : [ "hirt.val[28]", "hirt.val", 0 ],
			"obj-54::obj-1::obj-1::obj-12::obj-70" : [ "hirt.val[6]", "hirt.val", 0 ],
			"obj-54::obj-31::obj-21" : [ "EQ Routing", "Active", 0 ],
			"obj-54::obj-24::obj-2::obj-25" : [ "Widen", "Widen", 0 ],
			"obj-54::obj-1::obj-2::obj-36::obj-70" : [ "hirt.val[8]", "hirt.val", 0 ],
			"obj-54::obj-31::obj-51::obj-70" : [ "hirt.val[24]", "hirt.val", 0 ],
			"obj-54::obj-24::obj-1::obj-29::obj-70" : [ "hirt.val[16]", "hirt.val", 0 ],
			"obj-54::obj-79" : [ "Offline Tabs", "Offline", 0 ],
			"obj-54::obj-14" : [ "Position Active", "Active", 0 ],
			"obj-54::obj-36::obj-49" : [ "Select IR", "Select", 0 ],
			"obj-54::obj-3::obj-59::obj-70" : [ "hirt.val[33]", "hirt.val", 0 ],
			"obj-54::obj-36::obj-131::obj-10" : [ "Category Menu", "Category Menu", 0 ],
			"obj-54::obj-31::obj-56::obj-70" : [ "hirt.val[20]", "hirt.val", 0 ],
			"obj-54::obj-1::obj-2::obj-100::obj-70" : [ "hirt.val[13]", "hirt.val", 0 ],
			"obj-54::obj-24::obj-2::obj-49" : [ "Type", "Type", 0 ],
			"obj-54::obj-28" : [ "PATCH/PRESS", "PATCH/PRESS", 0 ],
			"obj-54::obj-36::obj-53" : [ "Mode IR", "Mode", 0 ],
			"obj-54::obj-3::obj-62::obj-70" : [ "hirt.val[29]", "hirt.val", 0 ],
			"obj-54::obj-31::obj-50::obj-70" : [ "hirt.val[25]", "hirt.val", 0 ],
			"obj-54::obj-10" : [ "Damp Active", "Active", 0 ],
			"obj-54::obj-1::obj-2::obj-101::obj-70" : [ "hirt.val[10]", "hirt.val", 0 ],
			"obj-54::obj-24::obj-1::obj-28::obj-70" : [ "hirt.val[17]", "hirt.val", 0 ],
			"obj-54::obj-5" : [ "Realtime Tabs", "Realtime", 0 ],
			"obj-54::obj-1::obj-1::obj-46::obj-70" : [ "hirt.val[3]", "hirt.val", 0 ],
			"obj-54::obj-36::obj-114::obj-35" : [ "Drop A", "live.drop", 0 ],
			"obj-54::obj-31::obj-55::obj-70" : [ "hirt.val[21]", "hirt.val", 0 ],
			"obj-54::obj-1::obj-2::obj-99::obj-70" : [ "hirt.val[7]", "hirt.val", 0 ],
			"obj-54::obj-1::obj-1::obj-97::obj-70" : [ "hirt.val", "hirt.val", 0 ],
			"obj-54::obj-1::obj-2::obj-92::obj-70" : [ "hirt.val[15]", "hirt.val", 0 ],
			"obj-54::obj-1::obj-1::obj-48::obj-70" : [ "hirt.val[1]", "hirt.val", 0 ],
			"obj-54::obj-3::obj-63::obj-70" : [ "hirt.val[30]", "hirt.val", 0 ],
			"obj-54::obj-1::obj-1::obj-9" : [ "Reverse", "Reverse", 0 ],
			"obj-54::obj-31::obj-22::obj-70" : [ "hirt.val[26]", "hirt.val", 0 ],
			"obj-54::obj-8" : [ "Shape Active", "Active", 0 ],
			"obj-54::obj-24::obj-2::obj-29::obj-70" : [ "hirt.val[18]", "hirt.val", 0 ],
			"obj-54::obj-1::obj-1::obj-45::obj-70" : [ "hirt.val[4]", "hirt.val", 0 ],
			"obj-54::obj-1::obj-2::obj-96::obj-70" : [ "hirt.val[12]", "hirt.val", 0 ],
			"obj-54::obj-1::obj-1::obj-49" : [ "Length Mode", "Length Mode", 0 ],
			"obj-54::obj-31::obj-54::obj-70" : [ "hirt.val[22]", "hirt.val", 0 ],
			"obj-54::obj-1::obj-2::obj-88::obj-70" : [ "hirt.val[9]", "hirt.val", 0 ],
			"obj-54::obj-1::obj-1::obj-47::obj-70" : [ "hirt.val[2]", "hirt.val", 0 ],
			"obj-54::obj-36::obj-131::obj-11" : [ "IR Menu", "IR Menu", 0 ],
			"obj-54::obj-11" : [ "Modulation Active", "Active", 0 ],
			"obj-54::obj-3::obj-64::obj-70" : [ "hirt.val[31]", "hirt.val", 0 ],
			"obj-54::obj-108::obj-90" : [ "number", "number", 0 ],
			"obj-54::obj-31::obj-19::obj-70" : [ "hirt.val[27]", "hirt.val", 0 ],
			"obj-54::obj-24::obj-2::obj-8::obj-70" : [ "hirt.val[19]", "hirt.val", 0 ],
			"obj-54::obj-36::obj-114::obj-65" : [ "Drop B", "live.drop", 0 ],
			"parameterbanks" : 			{

			}
,
			"parameter_overrides" : 			{
				"obj-54::obj-1::obj-1::obj-44::obj-70" : 				{
					"parameter_longname" : "hirt.val[5]",
					"parameter_invisible" : 1,
					"parameter_exponent" : 2.0,
					"parameter_modmode" : 0,
					"parameter_type" : 0,
					"parameter_unitstyle" : 2,
					"parameter_initial" : 0.0,
					"parameter_range" : [ 0.0, 1000.0 ]
				}
,
				"obj-54::obj-1::obj-2::obj-79::obj-70" : 				{
					"parameter_longname" : "hirt.val[14]",
					"parameter_invisible" : 1,
					"parameter_exponent" : 1.189901,
					"parameter_modmode" : 0,
					"parameter_type" : 0,
					"parameter_unitstyle" : 5,
					"parameter_initial" : 100.0,
					"parameter_range" : [ 20.0, 200.0 ]
				}
,
				"obj-54::obj-31::obj-53::obj-70" : 				{
					"parameter_longname" : "hirt.val[23]",
					"parameter_exponent" : 4.0,
					"parameter_invisible" : 0,
					"parameter_modmode" : 0,
					"parameter_type" : 0,
					"parameter_unitstyle" : 3,
					"parameter_initial" : 1000.0,
					"parameter_range" : [ 10.0, 18000.0 ]
				}
,
				"obj-54::obj-1::obj-2::obj-81::obj-70" : 				{
					"parameter_longname" : "hirt.val[11]",
					"parameter_invisible" : 1,
					"parameter_exponent" : 1.189901,
					"parameter_modmode" : 0,
					"parameter_type" : 0,
					"parameter_unitstyle" : 5,
					"parameter_initial" : 100.0,
					"parameter_range" : [ 20.0, 200.0 ]
				}
,
				"obj-54::obj-3::obj-65::obj-70" : 				{
					"parameter_longname" : "hirt.val[32]",
					"parameter_invisible" : 0,
					"parameter_modmode" : 0,
					"parameter_type" : 0,
					"parameter_unitstyle" : 5,
					"parameter_initial" : 50.0,
					"parameter_range" : [ 0.0, 100.0 ],
					"parameter_exponent" : 1.0
				}
,
				"obj-54::obj-31::obj-17::obj-70" : 				{
					"parameter_longname" : "hirt.val[28]",
					"parameter_exponent" : 3.0,
					"parameter_invisible" : 0,
					"parameter_modmode" : 0,
					"parameter_type" : 0,
					"parameter_unitstyle" : 10,
					"parameter_initial" : 0.5,
					"parameter_range" : [ 0.05, 18.0 ]
				}
,
				"obj-54::obj-1::obj-1::obj-12::obj-70" : 				{
					"parameter_longname" : "hirt.val[6]",
					"parameter_invisible" : 1,
					"parameter_exponent" : 2.5,
					"parameter_modmode" : 0,
					"parameter_type" : 0,
					"parameter_unitstyle" : 2,
					"parameter_initial" : 15000.0,
					"parameter_range" : [ 100.0, 30000.0 ]
				}
,
				"obj-54::obj-1::obj-2::obj-36::obj-70" : 				{
					"parameter_longname" : "hirt.val[8]",
					"parameter_invisible" : 1,
					"parameter_exponent" : 1.189901,
					"parameter_modmode" : 0,
					"parameter_type" : 0,
					"parameter_unitstyle" : 5,
					"parameter_initial" : 100.0,
					"parameter_range" : [ 20.0, 200.0 ]
				}
,
				"obj-54::obj-31::obj-51::obj-70" : 				{
					"parameter_longname" : "hirt.val[24]",
					"parameter_invisible" : 0,
					"parameter_modmode" : 0,
					"parameter_type" : 0,
					"parameter_unitstyle" : 4,
					"parameter_units" : " ",
					"parameter_initial" : 0.0,
					"parameter_range" : [ -18.0, 18.0 ],
					"parameter_exponent" : 1.0
				}
,
				"obj-54::obj-24::obj-1::obj-29::obj-70" : 				{
					"parameter_longname" : "hirt.val[16]",
					"parameter_invisible" : 0,
					"parameter_modmode" : 0,
					"parameter_type" : 0,
					"parameter_unitstyle" : 6,
					"parameter_initial" : 0.0,
					"parameter_range" : [ -50.0, 50.0 ],
					"parameter_exponent" : 1.0
				}
,
				"obj-54::obj-3::obj-59::obj-70" : 				{
					"parameter_longname" : "hirt.val[33]",
					"parameter_exponent" : 2.0,
					"parameter_invisible" : 0,
					"parameter_modmode" : 0,
					"parameter_type" : 0,
					"parameter_unitstyle" : 2,
					"parameter_initial" : 0.0,
					"parameter_range" : [ 0.0, 200.0 ]
				}
,
				"obj-54::obj-31::obj-56::obj-70" : 				{
					"parameter_longname" : "hirt.val[20]",
					"parameter_exponent" : 4.0,
					"parameter_invisible" : 0,
					"parameter_modmode" : 0,
					"parameter_type" : 0,
					"parameter_unitstyle" : 3,
					"parameter_initial" : 8000.0,
					"parameter_range" : [ 10.0, 18000.0 ]
				}
,
				"obj-54::obj-1::obj-2::obj-100::obj-70" : 				{
					"parameter_longname" : "hirt.val[13]",
					"parameter_invisible" : 1,
					"parameter_exponent" : 4.0,
					"parameter_modmode" : 0,
					"parameter_type" : 0,
					"parameter_unitstyle" : 3,
					"parameter_initial" : 1000.0,
					"parameter_range" : [ 30.0, 18000.0 ]
				}
,
				"obj-54::obj-3::obj-62::obj-70" : 				{
					"parameter_longname" : "hirt.val[29]",
					"parameter_invisible" : 0,
					"parameter_modmode" : 0,
					"parameter_type" : 0,
					"parameter_unitstyle" : 5,
					"parameter_initial" : 0.0,
					"parameter_range" : [ 0.0, 100.0 ],
					"parameter_exponent" : 1.0
				}
,
				"obj-54::obj-31::obj-50::obj-70" : 				{
					"parameter_longname" : "hirt.val[25]",
					"parameter_exponent" : 3.0,
					"parameter_invisible" : 0,
					"parameter_modmode" : 0,
					"parameter_type" : 0,
					"parameter_unitstyle" : 10,
					"parameter_initial" : 0.707107,
					"parameter_range" : [ 0.05, 18.0 ]
				}
,
				"obj-54::obj-1::obj-2::obj-101::obj-70" : 				{
					"parameter_longname" : "hirt.val[10]",
					"parameter_invisible" : 1,
					"parameter_exponent" : 4.0,
					"parameter_modmode" : 0,
					"parameter_type" : 0,
					"parameter_unitstyle" : 3,
					"parameter_initial" : 8000.0,
					"parameter_range" : [ 30.0, 18000.0 ]
				}
,
				"obj-54::obj-24::obj-1::obj-28::obj-70" : 				{
					"parameter_longname" : "hirt.val[17]",
					"parameter_invisible" : 0,
					"parameter_modmode" : 0,
					"parameter_type" : 0,
					"parameter_unitstyle" : 5,
					"parameter_initial" : 0.0,
					"parameter_range" : [ -100.0, 100.0 ],
					"parameter_exponent" : 1.0
				}
,
				"obj-54::obj-1::obj-1::obj-46::obj-70" : 				{
					"parameter_longname" : "hirt.val[3]",
					"parameter_invisible" : 1,
					"parameter_modmode" : 0,
					"parameter_type" : 0,
					"parameter_unitstyle" : 5,
					"parameter_initial" : 100.0,
					"parameter_range" : [ 0.0, 100.0 ],
					"parameter_exponent" : 1.0
				}
,
				"obj-54::obj-31::obj-55::obj-70" : 				{
					"parameter_longname" : "hirt.val[21]",
					"parameter_invisible" : 0,
					"parameter_modmode" : 0,
					"parameter_type" : 0,
					"parameter_unitstyle" : 4,
					"parameter_units" : " ",
					"parameter_initial" : 0.0,
					"parameter_range" : [ -18.0, 18.0 ],
					"parameter_exponent" : 1.0
				}
,
				"obj-54::obj-1::obj-2::obj-99::obj-70" : 				{
					"parameter_longname" : "hirt.val[7]",
					"parameter_invisible" : 1,
					"parameter_exponent" : 4.0,
					"parameter_modmode" : 0,
					"parameter_type" : 0,
					"parameter_unitstyle" : 3,
					"parameter_initial" : 125.0,
					"parameter_range" : [ 30.0, 18000.0 ]
				}
,
				"obj-54::obj-1::obj-1::obj-97::obj-70" : 				{
					"parameter_invisible" : 1,
					"parameter_exponent" : 1.01,
					"parameter_modmode" : 0,
					"parameter_type" : 0,
					"parameter_unitstyle" : 5,
					"parameter_initial" : 100.0,
					"parameter_range" : [ 1.0, 200.0 ]
				}
,
				"obj-54::obj-1::obj-2::obj-92::obj-70" : 				{
					"parameter_longname" : "hirt.val[15]",
					"parameter_invisible" : 1,
					"parameter_modmode" : 0,
					"parameter_type" : 0,
					"parameter_unitstyle" : 1,
					"parameter_initial" : 0.707107,
					"parameter_range" : [ 0.05, 2.0 ],
					"parameter_exponent" : 1.0
				}
,
				"obj-54::obj-1::obj-1::obj-48::obj-70" : 				{
					"parameter_longname" : "hirt.val[1]",
					"parameter_invisible" : 1,
					"parameter_exponent" : 1.58,
					"parameter_modmode" : 0,
					"parameter_type" : 0,
					"parameter_unitstyle" : 5,
					"parameter_initial" : 100.0,
					"parameter_range" : [ 50.0, 200.0 ]
				}
,
				"obj-54::obj-3::obj-63::obj-70" : 				{
					"parameter_longname" : "hirt.val[30]",
					"parameter_invisible" : 0,
					"parameter_modmode" : 0,
					"parameter_type" : 0,
					"parameter_unitstyle" : 5,
					"parameter_initial" : 100.0,
					"parameter_range" : [ 0.0, 100.0 ],
					"parameter_exponent" : 1.0
				}
,
				"obj-54::obj-31::obj-22::obj-70" : 				{
					"parameter_longname" : "hirt.val[26]",
					"parameter_exponent" : 4.0,
					"parameter_invisible" : 0,
					"parameter_modmode" : 0,
					"parameter_type" : 0,
					"parameter_unitstyle" : 3,
					"parameter_initial" : 125.0,
					"parameter_range" : [ 10.0, 18000.0 ]
				}
,
				"obj-54::obj-24::obj-2::obj-29::obj-70" : 				{
					"parameter_longname" : "hirt.val[18]",
					"parameter_invisible" : 0,
					"parameter_modmode" : 0,
					"parameter_type" : 0,
					"parameter_unitstyle" : 3,
					"parameter_initial" : 1.0,
					"parameter_range" : [ 0.05, 2.0 ],
					"parameter_exponent" : 1.0
				}
,
				"obj-54::obj-1::obj-1::obj-45::obj-70" : 				{
					"parameter_longname" : "hirt.val[4]",
					"parameter_invisible" : 1,
					"parameter_exponent" : 2.0,
					"parameter_modmode" : 0,
					"parameter_type" : 0,
					"parameter_unitstyle" : 2,
					"parameter_initial" : 0.0,
					"parameter_range" : [ 0.0, 1000.0 ]
				}
,
				"obj-54::obj-1::obj-2::obj-96::obj-70" : 				{
					"parameter_longname" : "hirt.val[12]",
					"parameter_invisible" : 1,
					"parameter_modmode" : 0,
					"parameter_type" : 0,
					"parameter_unitstyle" : 1,
					"parameter_initial" : 1.0,
					"parameter_range" : [ 0.05, 2.0 ],
					"parameter_exponent" : 1.0
				}
,
				"obj-54::obj-31::obj-54::obj-70" : 				{
					"parameter_longname" : "hirt.val[22]",
					"parameter_exponent" : 3.0,
					"parameter_invisible" : 0,
					"parameter_modmode" : 0,
					"parameter_type" : 0,
					"parameter_unitstyle" : 10,
					"parameter_initial" : 0.5,
					"parameter_range" : [ 0.05, 18.0 ]
				}
,
				"obj-54::obj-1::obj-2::obj-88::obj-70" : 				{
					"parameter_longname" : "hirt.val[9]",
					"parameter_invisible" : 1,
					"parameter_modmode" : 0,
					"parameter_type" : 0,
					"parameter_unitstyle" : 1,
					"parameter_initial" : 1.0,
					"parameter_range" : [ 0.05, 2.0 ],
					"parameter_exponent" : 1.0
				}
,
				"obj-54::obj-1::obj-1::obj-47::obj-70" : 				{
					"parameter_longname" : "hirt.val[2]",
					"parameter_invisible" : 1,
					"parameter_modmode" : 0,
					"parameter_type" : 0,
					"parameter_unitstyle" : 5,
					"parameter_initial" : 100.0,
					"parameter_range" : [ 0.0, 100.0 ],
					"parameter_exponent" : 1.0
				}
,
				"obj-54::obj-3::obj-64::obj-70" : 				{
					"parameter_longname" : "hirt.val[31]",
					"parameter_invisible" : 0,
					"parameter_modmode" : 0,
					"parameter_type" : 0,
					"parameter_unitstyle" : 4,
					"parameter_units" : " ",
					"parameter_initial" : 0.0,
					"parameter_range" : [ -20.0, 20.0 ],
					"parameter_exponent" : 1.0
				}
,
				"obj-54::obj-31::obj-19::obj-70" : 				{
					"parameter_longname" : "hirt.val[27]",
					"parameter_invisible" : 0,
					"parameter_modmode" : 0,
					"parameter_type" : 0,
					"parameter_unitstyle" : 4,
					"parameter_units" : " ",
					"parameter_initial" : 0.0,
					"parameter_range" : [ -18.0, 18.0 ],
					"parameter_exponent" : 1.0
				}
,
				"obj-54::obj-24::obj-2::obj-8::obj-70" : 				{
					"parameter_longname" : "hirt.val[19]",
					"parameter_invisible" : 0,
					"parameter_modmode" : 0,
					"parameter_type" : 0,
					"parameter_unitstyle" : 5,
					"parameter_initial" : 50.0,
					"parameter_range" : [ 0.0, 100.0 ],
					"parameter_exponent" : 1.0
				}

			}

		}
,
		"dependency_cache" : [ 			{
				"name" : "hirt.convolutionreverb~.maxpat",
				"bootpath" : "~/Documents/Max 8/Packages/HISSTools Impulse Response Toolbox (HIRT)/patchers/HIRT_reverb",
				"patcherrelativepath" : "../../Documents/Max 8/Packages/HISSTools Impulse Response Toolbox (HIRT)/patchers/HIRT_reverb",
				"type" : "JSON",
				"implicit" : 1
			}
, 			{
				"name" : "hirt_tabs_offline.maxpat",
				"bootpath" : "~/Documents/Max 8/Packages/HISSTools Impulse Response Toolbox (HIRT)/patchers/HIRT_reverb/HIRT_reverb_support",
				"patcherrelativepath" : "../../Documents/Max 8/Packages/HISSTools Impulse Response Toolbox (HIRT)/patchers/HIRT_reverb/HIRT_reverb_support",
				"type" : "JSON",
				"implicit" : 1
			}
, 			{
				"name" : "hirt_tab_shape.maxpat",
				"bootpath" : "~/Documents/Max 8/Packages/HISSTools Impulse Response Toolbox (HIRT)/patchers/HIRT_reverb/HIRT_reverb_support",
				"patcherrelativepath" : "../../Documents/Max 8/Packages/HISSTools Impulse Response Toolbox (HIRT)/patchers/HIRT_reverb/HIRT_reverb_support",
				"type" : "JSON",
				"implicit" : 1
			}
, 			{
				"name" : "hirt.dial.maxpat",
				"bootpath" : "~/Documents/Max 8/Packages/HISSTools Impulse Response Toolbox (HIRT)/patchers/HIRT_support",
				"patcherrelativepath" : "../../Documents/Max 8/Packages/HISSTools Impulse Response Toolbox (HIRT)/patchers/HIRT_support",
				"type" : "JSON",
				"implicit" : 1
			}
, 			{
				"name" : "hirt.dial.linear.only.maxpat",
				"bootpath" : "~/Documents/Max 8/Packages/HISSTools Impulse Response Toolbox (HIRT)/patchers/HIRT_support",
				"patcherrelativepath" : "../../Documents/Max 8/Packages/HISSTools Impulse Response Toolbox (HIRT)/patchers/HIRT_support",
				"type" : "JSON",
				"implicit" : 1
			}
, 			{
				"name" : "hirt_tab_damp.maxpat",
				"bootpath" : "~/Documents/Max 8/Packages/HISSTools Impulse Response Toolbox (HIRT)/patchers/HIRT_reverb/HIRT_reverb_support",
				"patcherrelativepath" : "../../Documents/Max 8/Packages/HISSTools Impulse Response Toolbox (HIRT)/patchers/HIRT_reverb/HIRT_reverb_support",
				"type" : "JSON",
				"implicit" : 1
			}
, 			{
				"name" : "hirt_interface_damp.js",
				"bootpath" : "~/Documents/Max 8/Packages/HISSTools Impulse Response Toolbox (HIRT)/jsui",
				"patcherrelativepath" : "../../Documents/Max 8/Packages/HISSTools Impulse Response Toolbox (HIRT)/jsui",
				"type" : "TEXT",
				"implicit" : 1
			}
, 			{
				"name" : "hirt_tabs_realtime.maxpat",
				"bootpath" : "~/Documents/Max 8/Packages/HISSTools Impulse Response Toolbox (HIRT)/patchers/HIRT_reverb/HIRT_reverb_support",
				"patcherrelativepath" : "../../Documents/Max 8/Packages/HISSTools Impulse Response Toolbox (HIRT)/patchers/HIRT_reverb/HIRT_reverb_support",
				"type" : "JSON",
				"implicit" : 1
			}
, 			{
				"name" : "hirt_tab_position.maxpat",
				"bootpath" : "~/Documents/Max 8/Packages/HISSTools Impulse Response Toolbox (HIRT)/patchers/HIRT_reverb/HIRT_reverb_support",
				"patcherrelativepath" : "../../Documents/Max 8/Packages/HISSTools Impulse Response Toolbox (HIRT)/patchers/HIRT_reverb/HIRT_reverb_support",
				"type" : "JSON",
				"implicit" : 1
			}
, 			{
				"name" : "hirt_interface_pos.js",
				"bootpath" : "~/Documents/Max 8/Packages/HISSTools Impulse Response Toolbox (HIRT)/jsui",
				"patcherrelativepath" : "../../Documents/Max 8/Packages/HISSTools Impulse Response Toolbox (HIRT)/jsui",
				"type" : "TEXT",
				"implicit" : 1
			}
, 			{
				"name" : "hirt_tab_modulation.maxpat",
				"bootpath" : "~/Documents/Max 8/Packages/HISSTools Impulse Response Toolbox (HIRT)/patchers/HIRT_reverb/HIRT_reverb_support",
				"patcherrelativepath" : "../../Documents/Max 8/Packages/HISSTools Impulse Response Toolbox (HIRT)/patchers/HIRT_reverb/HIRT_reverb_support",
				"type" : "JSON",
				"implicit" : 1
			}
, 			{
				"name" : "hirt_interface_mod.js",
				"bootpath" : "~/Documents/Max 8/Packages/HISSTools Impulse Response Toolbox (HIRT)/jsui",
				"patcherrelativepath" : "../../Documents/Max 8/Packages/HISSTools Impulse Response Toolbox (HIRT)/jsui",
				"type" : "TEXT",
				"implicit" : 1
			}
, 			{
				"name" : "hirt_eq.maxpat",
				"bootpath" : "~/Documents/Max 8/Packages/HISSTools Impulse Response Toolbox (HIRT)/patchers/HIRT_reverb/HIRT_reverb_support",
				"patcherrelativepath" : "../../Documents/Max 8/Packages/HISSTools Impulse Response Toolbox (HIRT)/patchers/HIRT_reverb/HIRT_reverb_support",
				"type" : "JSON",
				"implicit" : 1
			}
, 			{
				"name" : "hirt_interface_eq.js",
				"bootpath" : "~/Documents/Max 8/Packages/HISSTools Impulse Response Toolbox (HIRT)/jsui",
				"patcherrelativepath" : "../../Documents/Max 8/Packages/HISSTools Impulse Response Toolbox (HIRT)/jsui",
				"type" : "TEXT",
				"implicit" : 1
			}
, 			{
				"name" : "hirt_ir.maxpat",
				"bootpath" : "~/Documents/Max 8/Packages/HISSTools Impulse Response Toolbox (HIRT)/patchers/HIRT_reverb/HIRT_reverb_support",
				"patcherrelativepath" : "../../Documents/Max 8/Packages/HISSTools Impulse Response Toolbox (HIRT)/patchers/HIRT_reverb/HIRT_reverb_support",
				"type" : "JSON",
				"implicit" : 1
			}
, 			{
				"name" : "hirt_file_loading.maxpat",
				"bootpath" : "~/Documents/Max 8/Packages/HISSTools Impulse Response Toolbox (HIRT)/patchers/HIRT_support",
				"patcherrelativepath" : "../../Documents/Max 8/Packages/HISSTools Impulse Response Toolbox (HIRT)/patchers/HIRT_support",
				"type" : "JSON",
				"implicit" : 1
			}
, 			{
				"name" : "hirt_loading_scheme.maxpat",
				"bootpath" : "~/Documents/Max 8/Packages/HISSTools Impulse Response Toolbox (HIRT)/patchers/HIRT_support",
				"patcherrelativepath" : "../../Documents/Max 8/Packages/HISSTools Impulse Response Toolbox (HIRT)/patchers/HIRT_support",
				"type" : "JSON",
				"implicit" : 1
			}
, 			{
				"name" : "hirt_file_set.maxpat",
				"bootpath" : "~/Documents/Max 8/Packages/HISSTools Impulse Response Toolbox (HIRT)/patchers/HIRT_support",
				"patcherrelativepath" : "../../Documents/Max 8/Packages/HISSTools Impulse Response Toolbox (HIRT)/patchers/HIRT_support",
				"type" : "JSON",
				"implicit" : 1
			}
, 			{
				"name" : "hirt_file_check.maxpat",
				"bootpath" : "~/Documents/Max 8/Packages/HISSTools Impulse Response Toolbox (HIRT)/patchers/HIRT_support",
				"patcherrelativepath" : "../../Documents/Max 8/Packages/HISSTools Impulse Response Toolbox (HIRT)/patchers/HIRT_support",
				"type" : "JSON",
				"implicit" : 1
			}
, 			{
				"name" : "hirt_base_name.maxpat",
				"bootpath" : "~/Documents/Max 8/Packages/HISSTools Impulse Response Toolbox (HIRT)/patchers/HIRT_support",
				"patcherrelativepath" : "../../Documents/Max 8/Packages/HISSTools Impulse Response Toolbox (HIRT)/patchers/HIRT_support",
				"type" : "JSON",
				"implicit" : 1
			}
, 			{
				"name" : "hirt_folder.maxpat",
				"bootpath" : "~/Documents/Max 8/Packages/HISSTools Impulse Response Toolbox (HIRT)/patchers/HIRT_support",
				"patcherrelativepath" : "../../Documents/Max 8/Packages/HISSTools Impulse Response Toolbox (HIRT)/patchers/HIRT_support",
				"type" : "JSON",
				"implicit" : 1
			}
, 			{
				"name" : "hirt_data_colls.maxpat",
				"bootpath" : "~/Documents/Max 8/Packages/HISSTools Impulse Response Toolbox (HIRT)/patchers/HIRT_support",
				"patcherrelativepath" : "../../Documents/Max 8/Packages/HISSTools Impulse Response Toolbox (HIRT)/patchers/HIRT_support",
				"type" : "JSON",
				"implicit" : 1
			}
, 			{
				"name" : "hirt_file_ir_display.maxpat",
				"bootpath" : "~/Documents/Max 8/Packages/HISSTools Impulse Response Toolbox (HIRT)/patchers/HIRT_reverb/HIRT_reverb_support",
				"patcherrelativepath" : "../../Documents/Max 8/Packages/HISSTools Impulse Response Toolbox (HIRT)/patchers/HIRT_reverb/HIRT_reverb_support",
				"type" : "JSON",
				"implicit" : 1
			}
, 			{
				"name" : "hirt_filter_type.maxpat",
				"bootpath" : "~/Documents/Max 8/Packages/HISSTools Impulse Response Toolbox (HIRT)/patchers/HIRT_support",
				"patcherrelativepath" : "../../Documents/Max 8/Packages/HISSTools Impulse Response Toolbox (HIRT)/patchers/HIRT_support",
				"type" : "JSON",
				"implicit" : 1
			}
, 			{
				"name" : "hirt_file_picker.maxpat",
				"bootpath" : "~/Documents/Max 8/Packages/HISSTools Impulse Response Toolbox (HIRT)/patchers/HIRT_support",
				"patcherrelativepath" : "../../Documents/Max 8/Packages/HISSTools Impulse Response Toolbox (HIRT)/patchers/HIRT_support",
				"type" : "JSON",
				"implicit" : 1
			}
, 			{
				"name" : "hirt_cr_info_view.maxpat",
				"bootpath" : "~/Documents/Max 8/Packages/HISSTools Impulse Response Toolbox (HIRT)/patchers/HIRT_reverb/HIRT_reverb_support",
				"patcherrelativepath" : "../../Documents/Max 8/Packages/HISSTools Impulse Response Toolbox (HIRT)/patchers/HIRT_reverb/HIRT_reverb_support",
				"type" : "JSON",
				"implicit" : 1
			}
, 			{
				"name" : "hirt_output.maxpat",
				"bootpath" : "~/Documents/Max 8/Packages/HISSTools Impulse Response Toolbox (HIRT)/patchers/HIRT_reverb/HIRT_reverb_support",
				"patcherrelativepath" : "../../Documents/Max 8/Packages/HISSTools Impulse Response Toolbox (HIRT)/patchers/HIRT_reverb/HIRT_reverb_support",
				"type" : "JSON",
				"implicit" : 1
			}
, 			{
				"name" : "hirt_convrvrb_clientlist_alias.txt",
				"bootpath" : "~/Documents/Max 8/Packages/HISSTools Impulse Response Toolbox (HIRT)/patchers/HIRT_reverb/HIRT_reverb_support",
				"patcherrelativepath" : "../../Documents/Max 8/Packages/HISSTools Impulse Response Toolbox (HIRT)/patchers/HIRT_reverb/HIRT_reverb_support",
				"type" : "TEXT",
				"implicit" : 1
			}
, 			{
				"name" : "HIRT_HISSTools_Logo.png",
				"bootpath" : "~/Documents/Max 8/Packages/HISSTools Impulse Response Toolbox (HIRT)/misc/HIRT_image",
				"patcherrelativepath" : "../../Documents/Max 8/Packages/HISSTools Impulse Response Toolbox (HIRT)/misc/HIRT_image",
				"type" : "PNG",
				"implicit" : 1
			}
, 			{
				"name" : "hirt.convrvrb.realtime~.maxpat",
				"bootpath" : "~/Documents/Max 8/Packages/HISSTools Impulse Response Toolbox (HIRT)/patchers/HIRT_reverb/HIRT_reverb_support",
				"patcherrelativepath" : "../../Documents/Max 8/Packages/HISSTools Impulse Response Toolbox (HIRT)/patchers/HIRT_reverb/HIRT_reverb_support",
				"type" : "JSON",
				"implicit" : 1
			}
, 			{
				"name" : "hirt.convolvestereo~.maxpat",
				"bootpath" : "~/Documents/Max 8/Packages/HISSTools Impulse Response Toolbox (HIRT)/patchers/HIRT_support",
				"patcherrelativepath" : "../../Documents/Max 8/Packages/HISSTools Impulse Response Toolbox (HIRT)/patchers/HIRT_support",
				"type" : "JSON",
				"implicit" : 1
			}
, 			{
				"name" : "hirt_convrvrb_rt_part1.gendsp",
				"bootpath" : "~/Documents/Max 8/Packages/HISSTools Impulse Response Toolbox (HIRT)/code",
				"patcherrelativepath" : "../../Documents/Max 8/Packages/HISSTools Impulse Response Toolbox (HIRT)/code",
				"type" : "gDSP",
				"implicit" : 1
			}
, 			{
				"name" : "hirt_convolution_rt_library.genexpr",
				"bootpath" : "~/Documents/Max 8/Packages/HISSTools Impulse Response Toolbox (HIRT)/code",
				"patcherrelativepath" : "../../Documents/Max 8/Packages/HISSTools Impulse Response Toolbox (HIRT)/code",
				"type" : "GenX",
				"implicit" : 1
			}
, 			{
				"name" : "hirt_eq_library.genexpr",
				"bootpath" : "~/Documents/Max 8/Packages/HISSTools Impulse Response Toolbox (HIRT)/code",
				"patcherrelativepath" : "../../Documents/Max 8/Packages/HISSTools Impulse Response Toolbox (HIRT)/code",
				"type" : "GenX",
				"implicit" : 1
			}
, 			{
				"name" : "hirt_convrvrb_rt_part3.gendsp",
				"bootpath" : "~/Documents/Max 8/Packages/HISSTools Impulse Response Toolbox (HIRT)/code",
				"patcherrelativepath" : "../../Documents/Max 8/Packages/HISSTools Impulse Response Toolbox (HIRT)/code",
				"type" : "gDSP",
				"implicit" : 1
			}
, 			{
				"name" : "hirt_convolution_rt_library.genexpr",
				"bootpath" : "~/Documents/Max 8/Packages/HISSTools Impulse Response Toolbox (HIRT)/code",
				"patcherrelativepath" : "../../Documents/Max 8/Packages/HISSTools Impulse Response Toolbox (HIRT)/code",
				"type" : "GenX",
				"implicit" : 1
			}
, 			{
				"name" : "hirt_convrvrb_rt_part5.gendsp",
				"bootpath" : "~/Documents/Max 8/Packages/HISSTools Impulse Response Toolbox (HIRT)/code",
				"patcherrelativepath" : "../../Documents/Max 8/Packages/HISSTools Impulse Response Toolbox (HIRT)/code",
				"type" : "gDSP",
				"implicit" : 1
			}
, 			{
				"name" : "hirt_convolution_rt_library.genexpr",
				"bootpath" : "~/Documents/Max 8/Packages/HISSTools Impulse Response Toolbox (HIRT)/code",
				"patcherrelativepath" : "../../Documents/Max 8/Packages/HISSTools Impulse Response Toolbox (HIRT)/code",
				"type" : "GenX",
				"implicit" : 1
			}
, 			{
				"name" : "hirt_gain_params.maxpat",
				"bootpath" : "~/Documents/Max 8/Packages/HISSTools Impulse Response Toolbox (HIRT)/patchers/HIRT_reverb/HIRT_reverb_support",
				"patcherrelativepath" : "../../Documents/Max 8/Packages/HISSTools Impulse Response Toolbox (HIRT)/patchers/HIRT_reverb/HIRT_reverb_support",
				"type" : "JSON",
				"implicit" : 1
			}
, 			{
				"name" : "hirt.svfcoeff.maxpat",
				"bootpath" : "~/Documents/Max 8/Packages/HISSTools Impulse Response Toolbox (HIRT)/patchers/HIRT_support",
				"patcherrelativepath" : "../../Documents/Max 8/Packages/HISSTools Impulse Response Toolbox (HIRT)/patchers/HIRT_support",
				"type" : "JSON",
				"implicit" : 1
			}
, 			{
				"name" : "hirt_zoom_factor.js",
				"bootpath" : "~/Documents/Max 8/Packages/HISSTools Impulse Response Toolbox (HIRT)/javascript",
				"patcherrelativepath" : "../../Documents/Max 8/Packages/HISSTools Impulse Response Toolbox (HIRT)/javascript",
				"type" : "TEXT",
				"implicit" : 1
			}
, 			{
				"name" : "hirt.damping.cascade.maxpat",
				"bootpath" : "~/Documents/Max 8/Packages/HISSTools Impulse Response Toolbox (HIRT)/patchers/HIRT_support",
				"patcherrelativepath" : "../../Documents/Max 8/Packages/HISSTools Impulse Response Toolbox (HIRT)/patchers/HIRT_support",
				"type" : "JSON",
				"implicit" : 1
			}
, 			{
				"name" : "hirt.buffer.filter.maxpat",
				"bootpath" : "~/Documents/Max 8/Packages/HISSTools Impulse Response Toolbox (HIRT)/patchers/HIRT_support",
				"patcherrelativepath" : "../../Documents/Max 8/Packages/HISSTools Impulse Response Toolbox (HIRT)/patchers/HIRT_support",
				"type" : "JSON",
				"implicit" : 1
			}
, 			{
				"name" : "hirt_partition_late.maxpat",
				"bootpath" : "~/Documents/Max 8/Packages/HISSTools Impulse Response Toolbox (HIRT)/patchers/HIRT_reverb/HIRT_reverb_support",
				"patcherrelativepath" : "../../Documents/Max 8/Packages/HISSTools Impulse Response Toolbox (HIRT)/patchers/HIRT_reverb/HIRT_reverb_support",
				"type" : "JSON",
				"implicit" : 1
			}
, 			{
				"name" : "hirt_partition_fix_length.maxpat",
				"bootpath" : "~/Documents/Max 8/Packages/HISSTools Impulse Response Toolbox (HIRT)/patchers/HIRT_reverb/HIRT_reverb_support",
				"patcherrelativepath" : "../../Documents/Max 8/Packages/HISSTools Impulse Response Toolbox (HIRT)/patchers/HIRT_reverb/HIRT_reverb_support",
				"type" : "JSON",
				"implicit" : 1
			}
, 			{
				"name" : "hirt_nan_fix.maxpat",
				"bootpath" : "~/Documents/Max 8/Packages/HISSTools Impulse Response Toolbox (HIRT)/patchers/HIRT_support",
				"patcherrelativepath" : "../../Documents/Max 8/Packages/HISSTools Impulse Response Toolbox (HIRT)/patchers/HIRT_support",
				"type" : "JSON",
				"implicit" : 1
			}
, 			{
				"name" : "hirt_partition_early.maxpat",
				"bootpath" : "~/Documents/Max 8/Packages/HISSTools Impulse Response Toolbox (HIRT)/patchers/HIRT_reverb/HIRT_reverb_support",
				"patcherrelativepath" : "../../Documents/Max 8/Packages/HISSTools Impulse Response Toolbox (HIRT)/patchers/HIRT_reverb/HIRT_reverb_support",
				"type" : "JSON",
				"implicit" : 1
			}
, 			{
				"name" : "hirt_partition_copy_buffers.maxpat",
				"bootpath" : "~/Documents/Max 8/Packages/HISSTools Impulse Response Toolbox (HIRT)/patchers/HIRT_reverb/HIRT_reverb_support",
				"patcherrelativepath" : "../../Documents/Max 8/Packages/HISSTools Impulse Response Toolbox (HIRT)/patchers/HIRT_reverb/HIRT_reverb_support",
				"type" : "JSON",
				"implicit" : 1
			}
, 			{
				"name" : "hirt_gain_and_display.maxpat",
				"bootpath" : "~/Documents/Max 8/Packages/HISSTools Impulse Response Toolbox (HIRT)/patchers/HIRT_reverb/HIRT_reverb_support",
				"patcherrelativepath" : "../../Documents/Max 8/Packages/HISSTools Impulse Response Toolbox (HIRT)/patchers/HIRT_reverb/HIRT_reverb_support",
				"type" : "JSON",
				"implicit" : 1
			}
, 			{
				"name" : "hirt.size.resample.maxpat",
				"bootpath" : "~/Documents/Max 8/Packages/HISSTools Impulse Response Toolbox (HIRT)/patchers/HIRT_support",
				"patcherrelativepath" : "../../Documents/Max 8/Packages/HISSTools Impulse Response Toolbox (HIRT)/patchers/HIRT_support",
				"type" : "JSON",
				"implicit" : 1
			}
, 			{
				"name" : "hirt_size_resample_feed.maxpat",
				"bootpath" : "~/Documents/Max 8/Packages/HISSTools Impulse Response Toolbox (HIRT)/patchers/HIRT_reverb/HIRT_reverb_support",
				"patcherrelativepath" : "../../Documents/Max 8/Packages/HISSTools Impulse Response Toolbox (HIRT)/patchers/HIRT_reverb/HIRT_reverb_support",
				"type" : "JSON",
				"implicit" : 1
			}
, 			{
				"name" : "irtrimnorm~.mxo",
				"type" : "iLaX"
			}
, 			{
				"name" : "spectrumdraw~.mxo",
				"type" : "iLaX"
			}
, 			{
				"name" : "iraverage~.mxo",
				"type" : "iLaX"
			}
, 			{
				"name" : "irdisplay~.mxo",
				"type" : "iLaX"
			}
, 			{
				"name" : "multiconvolve~.mxo",
				"type" : "iLaX"
			}
, 			{
				"name" : "morphfilter~.mxo",
				"type" : "iLaX"
			}
, 			{
				"name" : "irstats~.mxo",
				"type" : "iLaX"
			}
, 			{
				"name" : "irmix~.mxo",
				"type" : "iLaX"
			}
, 			{
				"name" : "ircropfade~.mxo",
				"type" : "iLaX"
			}
, 			{
				"name" : "bufreverse~.mxo",
				"type" : "iLaX"
			}
, 			{
				"name" : "bufresample~.mxo",
				"type" : "iLaX"
			}
, 			{
				"name" : "fluid.transients~.mxo",
				"type" : "iLaX"
			}
, 			{
				"name" : "fluid.bufnoveltyslice~.mxo",
				"type" : "iLaX"
			}
, 			{
				"name" : "fluid.pitch~.mxo",
				"type" : "iLaX"
			}
 ],
		"autosave" : 0,
		"styles" : [ 			{
				"name" : "max6box",
				"default" : 				{
					"textcolor_inverse" : [ 0.0, 0.0, 0.0, 1.0 ],
					"bgcolor" : [ 1.0, 1.0, 1.0, 0.5 ],
					"accentcolor" : [ 0.8, 0.839216, 0.709804, 1.0 ]
				}
,
				"parentstyle" : "",
				"multi" : 0
			}
, 			{
				"name" : "max6inlet",
				"default" : 				{
					"color" : [ 0.423529, 0.372549, 0.27451, 1.0 ]
				}
,
				"parentstyle" : "",
				"multi" : 0
			}
, 			{
				"name" : "max6message",
				"default" : 				{
					"textcolor_inverse" : [ 0.0, 0.0, 0.0, 1.0 ],
					"bgfillcolor" : 					{
						"type" : "gradient",
						"color1" : [ 0.866667, 0.866667, 0.866667, 1.0 ],
						"color2" : [ 0.788235, 0.788235, 0.788235, 1.0 ],
						"color" : [ 0.290196, 0.309804, 0.301961, 1.0 ],
						"angle" : 270.0,
						"proportion" : 0.39,
						"autogradient" : 0
					}

				}
,
				"parentstyle" : "max6box",
				"multi" : 0
			}
, 			{
				"name" : "max6outlet",
				"default" : 				{
					"color" : [ 0.0, 0.454902, 0.498039, 1.0 ]
				}
,
				"parentstyle" : "",
				"multi" : 0
			}
 ],
		"bgfillcolor_type" : "gradient",
		"bgfillcolor_color1" : [ 0.376471, 0.384314, 0.4, 1.0 ],
		"bgfillcolor_color2" : [ 0.290196, 0.309804, 0.301961, 1.0 ],
		"bgfillcolor_color" : [ 0.290196, 0.309804, 0.301961, 1.0 ],
		"bgfillcolor_angle" : 270.0,
		"bgfillcolor_proportion" : 0.39
	}

}
